<svg xmlns="http://www.w3.org/2000/svg" viewBox="0 0 150.4 31" enable-background="new 0 0 150.4 31"><style type="text/css">.st0{fill:#0274BD;} .st1{fill:#4BC8F4;} .st2{fill:#3AC5F2;} .st3{fill:#FFFFFF;} .st4{fill:#DC3232;} .st5{fill:#3075BA;}</style><path class="st0" d="M12.4 14.6c-1-.6-2.5-1.1-4.4-1.6-1.9-.5-3.3-1.1-4.2-1.8-.9-.7-1.3-1.6-1.3-2.7 0-1.2.5-2.2 1.5-2.9 1-.7 2.3-1.1 3.9-1.1 1.7 0 3 .4 4 1.3s1.5 2.1 1.5 3.5h1.8c0-1.2-.3-2.3-.9-3.3-.6-1-1.5-1.7-2.6-2.3-1.1-.4-2.4-.7-3.8-.7-2.1 0-3.8.5-5.2 1.5-1.4 1-2 2.4-2 4 0 1.7.7 3.1 2.2 4.1 1 .7 2.6 1.4 4.9 2 2.2.6 3.7 1.3 4.6 2 .8.7 1.3 1.6 1.3 2.8 0 1.2-.5 2.2-1.5 2.9-1 .7-2.4 1.1-4 1.1-1.9 0-3.4-.4-4.5-1.3s-1.7-2.1-1.7-3.6h-2c0 1.3.3 2.4 1 3.3.7 1 1.6 1.7 2.9 2.3 1.2.6 2.6.9 4.1.9 2.2 0 4-.5 5.3-1.5 1.4-1 2-2.4 2-4.1 0-1.1-.3-2-.8-2.8-.4-.7-1.1-1.4-2.1-2zm17.6-5.8h-2.2l-6.1 6-1.7 1.8v-14.5h-1.7v22.6h1.7v-6.1l2.1-1.9 6.4 8h2.1l-7.3-9.2zm8-.3c-1.4 0-2.6.3-3.7 1s-1.9 1.6-2.5 2.9c-.6 1.2-.9 2.6-.9 4.1v.4c0 2.5.7 4.4 2 5.9s3 2.2 5.1 2.2c1.4 0 2.6-.3 3.7-1s1.9-1.6 2.5-2.9c.6-1.2.9-2.6.9-4.2v-.4c0-2.5-.7-4.4-2-5.9-1.2-1.4-2.9-2.1-5.1-2.1zm5.4 8.4c0 2-.5 3.6-1.5 4.8-1 1.2-2.3 1.8-3.9 1.8s-2.9-.6-3.9-1.8c-1-1.2-1.5-2.8-1.5-4.7v-.3c0-2 .5-3.6 1.5-4.8 1-1.2 2.3-1.8 3.8-1.8 1.1 0 2 .3 2.8.8.8.6 1.4 1.3 1.9 2.3.5 1 .7 2.1.7 3.3v.4zm10.9-8.4c-1.4 0-2.6.3-3.7 1s-1.9 1.6-2.5 2.9c-.6 1.2-.9 2.6-.9 4.1v.4c0 2.5.7 4.4 2 5.9s3 2.2 5.1 2.2c1.4 0 2.6-.3 3.7-1s1.9-1.6 2.5-2.9c.6-1.2.9-2.6.9-4.2v-.4c0-2.5-.7-4.4-2-5.9-1.2-1.4-2.9-2.1-5.1-2.1zm5.4 8.4c0 2-.5 3.6-1.5 4.8-1 1.2-2.3 1.8-3.9 1.8s-2.9-.6-3.9-1.8c-1-1.2-1.5-2.8-1.5-4.7v-.3c0-2 .5-3.6 1.5-4.8 1-1.2 2.3-1.8 3.8-1.8 1.1 0 2 .3 2.8.8.8.6 1.4 1.3 1.9 2.3.5 1 .7 2.1.7 3.3v.4zm5-14.8h1.8v22.6h-1.8zm18 11.6c1-.4 1.7-1 2.3-1.8.5-.8.8-1.7.8-2.8 0-1.9-.7-3.4-2-4.4-1.3-1-3.3-1.5-5.9-1.5h-7.5v21.4h8.3c2.4 0 4.3-.6 5.6-1.6 1.3-1.1 2-2.6 2-4.7 0-1.2-.3-2.2-1-3.1-.7-.7-1.5-1.2-2.6-1.5zm-8-6.8h3.1c1.2 0 2.1.2 2.7.6.6.4.8 1.1.8 2.1 0 1.7-1.1 2.6-3.3 2.7h-3.3v-5.4zm6.2 13.5c-.6.5-1.4.7-2.4.7h-3.8v-5.8h4.1c2 0 3 1 3 3 0 .9-.3 1.6-.9 2.1zm20.6-6.3c0-1.8-.6-3.2-1.7-4.2-1.2-1-2.7-1.5-4.7-1.5-1.3 0-2.5.2-3.5.7-1 .4-1.8 1.1-2.4 1.8-.6.8-.9 1.6-.9 2.6h4.3c0-.6.2-1.1.6-1.4.4-.3 1-.5 1.7-.5.8 0 1.4.2 1.8.7.4.4.6 1 .6 1.8v.9h-2c-2.4 0-4.2.5-5.4 1.4-1.3.9-1.9 2.2-1.9 3.9 0 1.4.5 2.5 1.5 3.4 1 .9 2.3 1.4 3.9 1.4s3-.6 4-1.7c.1.6.2 1 .4 1.4h4.3v-.3c-.4-.8-.6-1.9-.6-3.4v-7zm-4.2 6.1c-.3.5-.6.8-1.2 1.1-.5.3-1.1.4-1.7.4-.6 0-1.2-.2-1.5-.5-.4-.3-.6-.8-.6-1.3v-.2c.1-1.5 1.3-2.2 3.4-2.2h1.6v2.7zm17-11.4l-.2 1.5c-1-1.2-2.3-1.8-4.1-1.8-2 0-3.5.7-4.7 2.2-1.2 1.5-1.7 3.5-1.7 5.9v.2c0 2.5.6 4.5 1.8 6 1.2 1.5 2.7 2.2 4.6 2.2 1.6 0 2.9-.6 3.9-1.7v.9c0 1.1-.3 2-.9 2.6-.6.6-1.5.9-2.6.9-1.5 0-2.8-.6-3.9-1.8l-1.9 2.6c.6.7 1.4 1.3 2.5 1.8s2.2.7 3.4.7c1.5 0 2.9-.3 4-.8s2-1.3 2.7-2.4c.6-1 1-2.2 1-3.6v-15.4h-3.9zm-.4 11.3c-.6 1-1.5 1.5-2.8 1.5-1 0-1.8-.4-2.4-1.2-.6-.8-.9-2-.9-3.4 0-1.7.3-2.9.9-3.8.6-.8 1.4-1.3 2.4-1.3 1.3 0 2.2.5 2.8 1.5v6.7zm22.6-19l.1-.1c0-.1.1-.1.1-.1l.4-.3c.3-.2.7-.2 1-.2.4 0 .8.1 1.2.4.1.1.2.1.2.2.1.1.2.2.3.4.2.1.2.3.2.6s-.1.6-.2.8c-.4 0-.8 0-1.1-.1.1-.2.2-.5.2-.8v-.2c0-.1-.1-.2-.2-.2-.3-.2-.6-.2-.9-.1-.3.1-.5.4-.7.7 0 .1 0 .1-.1.2h-.2c-.2 0-.7 0-.7-.3 0-.2.1-.4.2-.6.1-.2.1-.3.2-.3zm4.8 2.3l.6-.4c.7-.4 1.6-.8 2.4-1 .5-.1 1.1-.2 1.6-.2.6 0 1.1.1 1.7.2l.9.3c1.6.8 1.9 2.3 1.9 4 0 .7 0 1.4-.1 2l-.2 1.3c-.3 1-.8 1.9-1.2 2.9-.3.8-.7 1.5-.8 2.3-.2.8-.2 1.7 0 2.5l.6 2.1c.1.4.2.9.2 1.3v.7c-.1 1-.4 2-.9 2.8-.6.9-1.7 1.3-2.7 1.3-.4 0-.9-.1-1.2-.3-.2-.1-.3-.3-.4-.5v-.4l.1-1.9c0-.2.1-.5.2-.6.2.5.6.9 1 1.2.6.3 1.3-.3 1.5-.8.3-.6.3-1.3.3-2l-.3-2.6c-.2-1.3-.4-2.6-.2-3.9.3-1.9 1-3.4 1.8-5.2.3-.8.6-1.6.6-2.4v-.8c-.1-.5-.2-1-.6-1.4-.4-.5-1.1-1-1.9-.8-1.2.2-2.9 2-3 2.4"/><path class="st1" d="M144.7 25.6c-.3.3-.7.6-1 .7-1.6.8-3.2 1.7-4.9 2.5-.6.3-1.2.7-1.9 1-1 .5-2.2.1-3.3-.2l-3.2-.9c-1.4-.4-2.7-.9-4-1.5l-1.8-1c-.8-.4-.5-.8-.6-1.6-.1-.6-.8-.7-1-1.2-.2-.4-.2-.8-.2-1.3v-3c0-.9 0-1.8.2-2.6.2-.9.8-1.8 1.6-2.4-.1-1.2 0-2.5.1-3.7.1-1.4-.1-3 .7-4.2.8-1.4 2.5-2.2 3.9-2.9 2.2-1.1 4.7-1.5 7.1-1.3 2.4.2 5 1 6.5 2.9.7.9.9 1.5 1 2.6l.4 8.7.3 7.2c0 .4 0 .9.1 1.3.2.2.2.6 0 .9z"/><path class="st2" d="M124.8 16.7"/><path class="st0" d="M135 28.2s-6.2-.6-10.9-3.6l-.1-.1-.6-.6-.4-.5c-.1-.2-.1-.4-.1-.6v-5.2s0-2.6 1.9-3.4c0 0 4.9-.1 10.2 2.4v11.6zm8.6-10.3v.9l.1 2.1.1 2.2v1.2l-.1.2c-.2.2-.5.4-.8.5-.7.5-1.5.9-2.3 1.3-.3.2-.7.3-1 .4l-.6.2c-.1 0-.6.2-.6.2v-7.5c.1 0 3.2.8 5.2-1.7zm-18.8-9.2s.3-.7 1.1-1.6c1-1.1 2.3-1.7 3.9-1.7 2.2 0 4.4 1.1 5.7 2.8 1 1.3 1.1 3 1.1 4.7v.3c.1 1.5.1 16.5.1 16.6.1 0 .6-.3.6-.3 0-.6 0-14.9-.1-16.4v-.3c-.1-1.7-.1-3.6-1.2-5-1.4-1.9-3.8-3-6.2-3-2.2 0-3.6 1-4.4 1.9l-.5.6c.1.1-.1.7-.1 1.4zm4-5.2l-.2.1c.1 0 5.7-1.3 8.9 1.3 3.2 2.5 3.2 6.2 3.2 12.3l.5-.1c.1 0 .1-.1.1-.2 0-6 0-9.8-3.4-12.5-2.3-1.8-5.4-1.9-7.4-1.7 0 0-1 .4-1.7.8z"/><path class="st3" d="M132.7 18.8l-7.8-1.9v.3c1.4.4 5.1 1.2 6.8 1.7-.2.2-.3.6-.3.8 0 .4.2.7.4.7s.4-.3.4-.7c0-.2-.1-.5-.2-.7.3.1.5.1.5.1l.2-.3zm-.8 1.3c-.2 0-.3-.1-.3-.3 0-.2.1-.3.3-.3s.3.1.3.3c0 .2-.2.3-.3.3z"/><path class="st4" d="M125.7 10.7c3 0 5.4-2.4 5.4-5.4 0-3-2.4-5.4-5.4-5.4s-5.4 2.4-5.4 5.4c.1 3 2.5 5.4 5.4 5.4"/><path class="st3" d="M128.6 5.2l-.3-1.3-1.9.6v-1.8h-1.3v1.8l-1.9-.6-.3 1.3 1.8.5-1.2 1.5 1.1.9 1.1-1.5 1.2 1.5 1.1-.9-1.2-1.5z"/><path class="st5" d="M122.9 10.4"/></svg>